<?xml version="1.0" encoding="UTF-8"?>
<svg id="Layer_2" data-name="Layer 2" xmlns="http://www.w3.org/2000/svg" viewBox="0 0 259.58 259.58">
  <defs>
    <style>
      .cls-1 {
        fill: #e2592f;
      }

      .cls-2 {
        fill: #f8f7f0;
        fill-rule: evenodd;
      }
    </style>
  </defs>
  <g id="Layer_1-2" data-name="Layer 1">
    <g>
      <path class="cls-1" d="m19.03,0h221.52c10.5,0,19.03,8.53,19.03,19.03v221.52c0,10.5-8.53,19.03-19.03,19.03H19.03c-10.5,0-19.03-8.53-19.03-19.03V19.03C0,8.53,8.53,0,19.03,0Z"/>
      <g>
        <path class="cls-2" d="m175.68,94.52l-91.81-.03c1.38,14.42-1.14,84.94.82,91.58,4.59,15.55,27.57,10.95,45.09,10.96,7.22.01,30.41.96,35.65-1.1,12.26-4.82,10.1-15.93,10.1-27.03,0-15.56-.76-62.67.14-74.38h0Zm-45.89,42.23c2.42-1.19,17.16-16.33,17.65-17.29l8.7,8.63c-2.65,2.11-15.87,15.14-17.32,17.62.77,1.67.73,1.42,2.1,2.8.81.81,1.23,1.2,2.05,2l13.16,13.17c-2.62,2.87-5.65,5.89-8.42,8.43-4.42-3.7-13.95-15.23-17.91-17.35-3.75,2.02-13.66,13.7-17.89,17.34l-8.43-8.53,13.16-13.04c.89-.9,1.48-1.41,2.33-2.29,1.38-1.42,1.03-.8,1.83-2.53-1.5-2.58-14.6-15.35-17.3-17.57l8.33-8.59c2.21,1.41,6.71,6.53,8.82,8.64,1.94,1.94,7.27,7.59,9.16,8.56Z"/>
        <path class="cls-2" d="m100.8,68.24l-24.66.04-.06,16.83h107.32s.09-16.79.09-16.79l-24.72-.08c-1.76-1.04-3.28-4.49-3.79-6.31h-50.4c-.49,1.59-2.31,5.44-3.79,6.31Z"/>
      </g>
    </g>
  </g>
</svg>