<?xml version="1.0" encoding="UTF-8"?>
<svg id="Layer_2" data-name="Layer 2" xmlns="http://www.w3.org/2000/svg" viewBox="0 0 259.58 259.58">
  <defs>
    <style>
      .cls-1 {
        fill: #342412;
      }

      .cls-2 {
        fill: #f8f7f0;
        fill-rule: evenodd;
      }
    </style>
  </defs>
  <g id="Layer_1-2" data-name="Layer 1">
    <g>
      <rect class="cls-1" width="259.58" height="259.58" rx="19.03" ry="19.03"/>
      <g>
        <path class="cls-2" d="m193.89,81.36l-15.67-15.66c-5.5-5.51-14.46-5.51-19.96,0l-12.93,12.92,35.62,35.62,12.93-12.92c2.66-2.67,4.13-6.21,4.13-9.98s-1.47-7.31-4.13-9.98Z"/>
        <path class="cls-2" d="m98.81,126.77l-4.22,31.95c-.23,1.72.36,3.45,1.59,4.68,1.06,1.05,2.48,1.64,3.95,1.64.25,0,.49-.01.73-.05l31.95-4.22c1.21-.16,2.35-.72,3.22-1.59l37.03-37.04-35.62-35.62-37.03,37.03c-.87.87-1.43,2-1.59,3.22Z"/>
        <path class="cls-2" d="m185.47,144.46c-3.09,0-5.59,2.5-5.59,5.59v25.32c0,6.33-5.14,11.47-11.46,11.47h-84.23c-6.32,0-11.46-5.14-11.46-11.47v-84.22c0-6.32,5.14-11.47,11.46-11.47h25.33c3.09,0,5.59-2.5,5.59-5.58s-2.5-5.59-5.59-5.59h-25.33c-12.48,0-22.64,10.16-22.64,22.64v84.22c0,12.49,10.16,22.64,22.64,22.64h84.23c12.48,0,22.64-10.16,22.64-22.64v-25.32c0-3.09-2.5-5.59-5.59-5.59Z"/>
      </g>
    </g>
  </g>
</svg>